<svg xmlns="http://www.w3.org/2000/svg" width="1200" height="600" viewBox="0 0 1200 600">
  <defs>
    <linearGradient id="g" x1="0" x2="1">
      <stop stop-color="#4f46e5" offset="0"/>
      <stop stop-color="#06b6d4" offset="1"/>
    </linearGradient>
  </defs>
  <rect width="1200" height="600" fill="#0f172a"/>
  <rect x="40" y="40" width="1120" height="520" rx="16" fill="#111827" stroke="#1f2937"/>
  <text x="60" y="85" fill="#e5e7eb" font-family="Inter, system-ui, -apple-system, Segoe UI, Roboto, Ubuntu, Cantarell" font-weight="700" font-size="28">Enhanced SQL Database Health Report</text>
  <text x="60" y="120" fill="#93c5fd" font-family="Inter" font-size="16">Executive Summary · Security · Performance · Indexes · RLS · Cost</text>

  <rect x="60" y="150" width="320" height="120" rx="12" fill="#0b1220" stroke="#1f2937"/>
  <text x="80" y="185" fill="#93c5fd" font-family="Inter" font-size="14">Health Score</text>
  <text x="80" y="225" fill="#34d399" font-family="Inter" font-weight="700" font-size="40">7.0</text>

  <rect x="400" y="150" width="320" height="120" rx="12" fill="#0b1220" stroke="#1f2937"/>
  <text x="420" y="185" fill="#93c5fd" font-family="Inter" font-size="14">Critical Issues</text>
  <text x="420" y="225" fill="#fca5a5" font-family="Inter" font-weight="700" font-size="40">0</text>

  <rect x="740" y="150" width="420" height="120" rx="12" fill="#0b1220" stroke="#1f2937"/>
  <text x="760" y="185" fill="#93c5fd" font-family="Inter" font-size="14">Top Recommendations</text>
  <text x="760" y="215" fill="#e5e7eb" font-family="Inter" font-size="14">1) Enable RLS on critical tables</text>
  <text x="760" y="240" fill="#e5e7eb" font-family="Inter" font-size="14">2) Analyze outdated statistics</text>

  <rect x="60" y="300" width="540" height="220" rx="12" fill="#0b1220" stroke="#1f2937"/>
  <text x="80" y="335" fill="#93c5fd" font-family="Inter" font-size="14">Security & RLS</text>
  <rect x="80" y="350" width="500" height="24" rx="6" fill="#1f2937"/>
  <rect x="80" y="350" width="360" height="24" rx="6" fill="url(#g)"/>
  <text x="90" y="367" fill="#e5e7eb" font-family="Inter" font-size="12">RLS Enabled: 60%</text>
  <rect x="80" y="385" width="500" height="24" rx="6" fill="#1f2937"/>
  <rect x="80" y="385" width="280" height="24" rx="6" fill="url(#g)"/>
  <text x="90" y="402" fill="#e5e7eb" font-family="Inter" font-size="12">Public Access Restricted: 56%</text>

  <rect x="640" y="300" width="520" height="220" rx="12" fill="#0b1220" stroke="#1f2937"/>
  <text x="660" y="335" fill="#93c5fd" font-family="Inter" font-size="14">Index Usage</text>
  <rect x="660" y="350" width="480" height="140" rx="8" fill="#0b1220" stroke="#1f2937"/>
  <circle cx="720" cy="420" r="30" fill="#34d399"/>
  <circle cx="820" cy="410" r="22" fill="#60a5fa"/>
  <circle cx="920" cy="430" r="28" fill="#f59e0b"/>
  <circle cx="1010" cy="415" r="18" fill="#f87171"/>

  <text x="60" y="560" fill="#9ca3af" font-family="Inter" font-size="12">Generated by @vasoyaprince14/sql-analyzer</text>
</svg>
